<svg width="512" height="512" viewBox="0 0 512 512" fill="none" xmlns="http://www.w3.org/2000/svg">
  <rect width="512" height="512" rx="112" fill="#1c1c1e"/>
  <path d="M256 120L150 380H195L256 230L317 380H362L256 120Z" fill="#c29d0b"/>
  <circle cx="256" cy="256" r="140" stroke="#c29d0b" stroke-width="12" stroke-opacity="0.2"/>
  <path d="M256 160C200.771 160 156 204.771 156 260C156 315.229 200.771 360 256 360C311.229 360 356 315.229 356 260C356 204.771 311.229 160 256 160ZM256 336C214.026 336 180 301.974 180 260C180 218.026 214.026 184 256 184C297.974 184 332 218.026 332 260C332 301.974 297.974 336 256 336Z" fill="#c29d0b"/>
</svg>
